<svg width="774" height="588" viewBox="0 0 774 588" version="1.1" xmlns="http://www.w3.org/2000/svg" xmlns:xlink="http://www.w3.org/1999/xlink" xmlns:figma="http://www.figma.com/figma/ns">
<title>Circle</title>
<desc>Created using Figma</desc>
<g id="Canvas" transform="translate(387 295)" figma:type="canvas">
<mask id="mask0_alpha" mask-type="alpha">
<path d="M -386.5 -295L 386.5 -295L 386.5 293L -386.5 293L -386.5 -295Z" fill="#FFFFFF"/>
</mask>
<g id="Circle" style="mix-blend-mode:normal;" mask="url(#mask0_alpha)" figma:type="frame">
<g id="Ellipse" style="mix-blend-mode:normal;" filter="url(#filter0_d)" figma:type="ellipse">
<use xlink:href="#path0_fill" transform="translate(-249.5 -251)" fill="#FF3366" style="mix-blend-mode:normal;"/>
<mask id="mask1_outline_out">
<rect id="mask1_outline_inv" fill="white" x="-20" y="-20" width="540" height="540" transform="translate(-249.5 -251)"/>
<use xlink:href="#path0_fill" fill="black" transform="translate(-249.5 -251)"/>
</mask>
<g mask="url(#mask1_outline_out)">
<use xlink:href="#path1_stroke_2x" transform="translate(-249.5 -251)" fill="#FFFFFF" style="mix-blend-mode:normal;"/>
</g>
</g>
<g id="IDEALLY" style="mix-blend-mode:normal;" figma:type="text">
<use xlink:href="#path2_fill" transform="translate(-207.5 -58)" fill="#FFFFFF" style="mix-blend-mode:normal;"/>
</g>
<g id="Ideas. Feedbacks. Amplified." style="mix-blend-mode:normal;" figma:type="text">
<use xlink:href="#path3_fill" transform="translate(-149 56)" fill="#FFFFFF" style="mix-blend-mode:normal;"/>
</g>
</g>
</g>
<defs>
<filter id="filter0_d" filterUnits="userSpaceOnUse" x="-300" y="-295" width="601" height="588" color-interpolation-filters="sRGB">
<feFlood flood-opacity="0" result="BackgroundImageFix"/>
<desc>type="dropShadow" x="0" y="4" size="30" spread="0" color="0,0,0,0.25" blend="normal"</desc>
<feColorMatrix in="SourceAlpha" type="matrix" values="0 0 0 0 0 0 0 0 0 0 0 0 0 0 0 0 0 0 255 0"/>
<feOffset dx="0" dy="4"/>
<feGaussianBlur stdDeviation="15"/>
<feColorMatrix type="matrix" values="0 0 0 0 0 0 0 0 0 0 0 0 0 0 0 0 0 0 0.25 0"/>
<feBlend mode="normal" in2="BackgroundImageFix" result="effect1_dropShadow"/>
<feBlend mode="normal" in="SourceGraphic" in2="effect1_dropShadow" result="shape"/>
</filter>
<path id="path0_fill" d="M 500 250C 500 388.071 388.071 500 250 500C 111.929 500 0 388.071 0 250C 0 111.929 111.929 0 250 0C 388.071 0 500 111.929 500 250Z"/>
<path id="path1_stroke_2x" d="M 480 250C 480 377.025 377.025 480 250 480L 250 520C 399.117 520 520 399.117 520 250L 480 250ZM 250 480C 122.975 480 20 377.025 20 250L -20 250C -20 399.117 100.883 520 250 520L 250 480ZM 20 250C 20 122.975 122.975 20 250 20L 250 -20C 100.883 -20 -20 100.883 -20 250L 20 250ZM 250 20C 377.025 20 480 122.975 480 250L 520 250C 520 100.883 399.117 -20 250 -20L 250 20Z"/>
<path id="path2_fill" d="M 17.856 100.496C 13.696 100.496 10.72 99.312 8.928 96.944C 7.136 94.512 6.24 90.928 6.24 86.192C 6.24 81.392 8.256 67.856 12.288 45.584L 7.2 35.312C 14.432 30.64 21.024 28.304 26.976 28.304C 31.904 28.304 34.368 31.312 34.368 37.328C 34.368 39.312 33.12 46.704 30.624 59.504C 28.192 72.24 26.976 79.824 26.976 82.256C 26.976 88.464 27.936 93.104 29.856 96.176C 26.016 99.056 22.016 100.496 17.856 100.496ZM 42.9787 82.352C 42.9787 78.704 43.8427 72.272 45.5707 63.056C 47.2987 53.84 48.3547 48.016 48.7387 45.584L 43.6508 35.312C 51.7788 30.704 58.6908 28.4 64.3867 28.4C 67.2028 28.4 69.3147 29.36 70.7228 31.28C 76.0347 29.424 80.9307 28.496 85.4107 28.496C 93.7308 28.496 100.195 31.216 104.803 36.656C 109.411 42.032 111.715 48.752 111.715 56.816C 111.715 67.44 107.811 77.2 100.003 86.096C 96.2267 90.384 91.2347 93.84 85.0267 96.464C 78.8827 99.088 72.2907 100.4 65.2507 100.4C 58.2108 100.4 52.7387 98.864 48.8347 95.792C 44.9307 92.656 42.9787 88.176 42.9787 82.352ZM 63.3308 86C 64.6748 86.256 66.1788 86.384 67.8428 86.384C 74.8188 86.384 80.2587 83.888 84.1627 78.896C 88.0667 73.84 90.0188 67.632 90.0188 60.272C 90.0188 54.32 88.6748 49.584 85.9868 46.064C 83.2987 42.544 79.4267 40.784 74.3707 40.784C 73.6028 40.784 72.3227 40.912 70.5308 41.168C 70.0828 44.432 68.8988 51.728 66.9788 63.056C 65.1228 74.32 63.9067 81.968 63.3308 86ZM 128.55 100.496C 124.774 100.496 121.99 99.312 120.198 96.944C 118.406 94.512 117.51 90.928 117.51 86.192C 117.51 81.392 119.526 67.856 123.558 45.584L 118.47 35.312C 125.702 30.64 132.294 28.304 138.246 28.304C 142.022 28.304 144.358 30.096 145.254 33.68C 152.486 33.488 161.51 31.856 172.326 28.784C 172.838 30.896 173.094 32.976 173.094 35.024C 173.094 40.208 171.366 44.112 167.91 46.736C 164.518 49.36 160.134 50.672 154.758 50.672C 151.11 50.672 147.526 49.904 144.006 48.368C 143.494 51.248 142.598 55.952 141.318 62.48C 143.686 62.928 145.702 63.152 147.366 63.152C 149.99 62.64 152.87 61.904 156.006 60.944C 156.326 62.032 156.486 63.824 156.486 66.32C 156.486 68.752 155.494 70.704 153.51 72.176C 151.526 73.648 149.286 74.384 146.79 74.384C 144.358 74.384 141.862 74.096 139.302 73.52C 138.598 77.552 138.246 81.36 138.246 84.944L 153.798 84.944C 158.662 84.24 163.558 82.992 168.486 81.2C 168.87 82.352 169.062 83.92 169.062 85.904C 169.062 89.68 167.942 93.04 165.702 95.984C 163.526 98.928 160.486 100.4 156.582 100.4C 154.534 100.4 151.526 99.984 147.558 99.152C 143.654 98.384 140.742 97.904 138.822 97.712C 135.75 99.568 132.326 100.496 128.55 100.496ZM 232.147 42.512L 231.379 65.36C 231.379 73.232 232.02 79.856 233.3 85.232C 234.644 90.608 237.108 94.32 240.691 96.368C 236.275 99.12 231.796 100.496 227.251 100.496C 219.252 100.496 214.324 94.032 212.468 81.104L 192.883 81.104C 191.668 85.264 191.06 88.464 191.06 90.704C 191.06 92.88 191.316 94.64 191.828 95.984C 187.092 98.992 182.868 100.496 179.155 100.496C 173.46 100.496 170.611 97.04 170.611 90.128C 170.611 86.672 171.667 82.32 173.78 77.072C 175.955 71.824 178.804 65.808 182.323 59.024C 185.908 52.24 188.18 47.76 189.14 45.584C 188.436 42.128 187.635 38.736 186.74 35.408C 190.068 33.104 193.268 31.376 196.339 30.224C 199.476 29.008 202.836 28.4 206.42 28.4C 210.068 28.4 212.595 29.2 214.004 30.8C 217.651 29.2 220.66 28.4 223.028 28.4C 225.396 28.4 227.156 28.784 228.308 29.552C 229.459 30.32 230.292 31.44 230.803 32.912C 231.699 35.472 232.147 38.672 232.147 42.512ZM 212.851 44.72L 209.78 44.72C 204.02 55.856 199.731 64.624 196.916 71.024L 211.796 71.024C 211.796 64.048 212.148 55.28 212.851 44.72ZM 258.597 100.496C 254.373 100.496 251.365 99.312 249.573 96.944C 247.781 94.512 246.885 90.928 246.885 86.192C 246.885 81.392 248.901 67.856 252.933 45.584L 247.845 35.312C 255.077 30.64 261.669 28.304 267.621 28.304C 272.549 28.304 275.013 31.312 275.013 37.328C 275.013 39.12 273.765 46.608 271.269 59.792C 268.837 72.976 267.621 81.36 267.621 84.944L 277.989 84.944C 282.853 84.24 287.749 82.992 292.677 81.2C 293.061 82.352 293.253 83.92 293.253 85.904C 293.253 89.68 292.133 93.04 289.893 95.984C 287.717 98.928 284.677 100.4 280.773 100.4C 278.149 100.4 273.605 99.696 267.141 98.288C 264.453 99.76 261.605 100.496 258.597 100.496ZM 311.284 100.496C 307.06 100.496 304.053 99.312 302.26 96.944C 300.468 94.512 299.572 90.928 299.572 86.192C 299.572 81.392 301.589 67.856 305.621 45.584L 300.533 35.312C 307.765 30.64 314.357 28.304 320.308 28.304C 325.236 28.304 327.7 31.312 327.7 37.328C 327.7 39.12 326.453 46.608 323.957 59.792C 321.524 72.976 320.308 81.36 320.308 84.944L 330.677 84.944C 335.54 84.24 340.436 82.992 345.365 81.2C 345.749 82.352 345.94 83.92 345.94 85.904C 345.94 89.68 344.82 93.04 342.581 95.984C 340.404 98.928 337.364 100.4 333.46 100.4C 330.837 100.4 326.293 99.696 319.828 98.288C 317.141 99.76 314.293 100.496 311.284 100.496ZM 358.212 80.72C 358.148 79.44 358.02 76.752 357.828 72.656C 357.636 68.56 357.444 65.456 357.252 63.344C 357.124 61.168 356.772 58.224 356.196 54.512C 355.684 50.8 355.012 47.824 354.18 45.584C 352.132 39.696 349.252 35.472 345.54 32.912C 350.532 29.904 354.564 28.4 357.636 28.4C 360.772 28.4 363.364 28.912 365.412 29.936C 367.46 30.96 369.124 32.208 370.404 33.68C 371.748 35.088 372.932 37.072 373.956 39.632C 374.98 42.192 375.748 44.528 376.26 46.64C 376.772 48.752 377.188 51.472 377.508 54.8C 377.892 58.128 378.116 60.816 378.18 62.864C 378.308 64.912 378.404 67.632 378.468 71.024C 378.596 74.352 378.692 76.656 378.756 77.936L 380.1 77.936C 382.596 71.984 384.868 65.168 386.916 57.488C 389.028 49.808 390.084 43.696 390.084 39.152C 390.084 36.912 389.604 34.832 388.644 32.912C 393.444 29.904 397.7 28.4 401.412 28.4C 408.452 28.4 411.972 32.112 411.972 39.536C 411.972 43.312 410.532 49.648 407.652 58.544C 404.772 67.44 401.38 76.048 397.476 84.368C 392.42 95.184 387.204 102.992 381.828 107.792C 376.516 112.592 369.668 114.992 361.284 114.992C 357.572 114.992 354.212 114.256 351.204 112.784C 347.556 111.056 345.732 108.144 345.732 104.048C 345.732 99.952 347.3 95.728 350.436 91.376C 351.844 93.424 353.732 95.024 356.1 96.176C 358.468 97.264 361.06 97.808 363.876 97.808C 366.756 97.808 369.444 97.04 371.94 95.504C 374.5 93.904 376.324 91.632 377.412 88.688C 374.02 89.52 370.916 89.936 368.1 89.936C 362.02 89.936 358.724 86.864 358.212 80.72Z"/>
<path id="path3_fill" d="M 2.784 17.872L 2.784 9.328L 1.08 9.328C 0.808 9.328 0.616 8.984 0.504 8.296C 0.456 7.96 0.432 7.616 0.432 7.264C 0.432 6.912 0.456 6.568 0.504 6.232C 0.616 5.544 0.808 5.2 1.08 5.2L 9.144 5.2C 9.416 5.2 9.6 5.544 9.696 6.232C 9.76 6.568 9.792 6.912 9.792 7.264C 9.792 7.616 9.76 7.96 9.696 8.296C 9.6 8.984 9.416 9.328 9.144 9.328L 7.536 9.328L 7.536 17.872L 9.216 17.872C 9.488 17.872 9.68 18.216 9.792 18.904C 9.856 19.24 9.888 19.584 9.888 19.936C 9.888 20.288 9.856 20.632 9.792 20.968C 9.68 21.656 9.488 22 9.216 22L 1.128 22C 0.856 22 0.672 21.656 0.576 20.968C 0.512 20.632 0.48 20.288 0.48 19.936C 0.48 19.584 0.512 19.24 0.576 18.904C 0.672 18.216 0.856 17.872 1.128 17.872L 2.784 17.872ZM 17.4411 5.344C 17.4411 5.104 18.0731 4.984 19.3371 4.984C 19.7691 4.984 20.2651 5.016 20.8251 5.08C 21.4011 5.128 21.6891 5.2 21.6891 5.296L 21.6891 17.944L 22.5291 17.944C 22.9291 17.944 23.1931 18.304 23.3211 19.024C 23.3531 19.232 23.3691 19.52 23.3691 19.888C 23.3691 20.24 23.2571 20.672 23.0331 21.184C 22.7131 21.888 22.2011 22.24 21.4971 22.24C 20.9691 22.24 20.4971 22.136 20.0811 21.928C 19.6811 21.72 19.4091 21.504 19.2651 21.28L 19.0491 20.968C 18.1691 21.816 17.0651 22.24 15.7371 22.24C 14.4091 22.24 13.2731 21.688 12.3291 20.584C 11.3851 19.48 10.9131 17.944 10.9131 15.976C 10.9131 13.992 11.4091 12.464 12.4011 11.392C 13.3931 10.304 14.6331 9.76 16.1211 9.76C 16.5531 9.76 16.9931 9.808 17.4411 9.904L 17.4411 5.344ZM 16.6491 13.6C 15.7531 13.6 15.3051 14.408 15.3051 16.024C 15.3051 16.84 15.4331 17.432 15.6891 17.8C 15.9451 18.152 16.2251 18.328 16.5291 18.328C 16.8491 18.328 17.1531 18.192 17.4411 17.92L 17.4411 13.84C 17.1691 13.68 16.9051 13.6 16.6491 13.6ZM 34.0114 21.352C 33.0034 21.944 31.7074 22.24 30.1234 22.24C 28.5394 22.24 27.2034 21.704 26.1154 20.632C 25.0274 19.544 24.4834 18.048 24.4834 16.144C 24.4834 14.224 25.0034 12.68 26.0434 11.512C 27.0994 10.344 28.4274 9.76 30.0274 9.76C 31.6274 9.76 32.8594 10.168 33.7234 10.984C 34.6034 11.8 35.0434 12.792 35.0434 13.96C 35.0434 16.552 33.5554 17.848 30.5794 17.848L 28.9234 17.848C 28.9234 18.328 29.0514 18.664 29.3074 18.856C 29.5794 19.032 29.9714 19.12 30.4834 19.12C 31.6034 19.12 32.6674 18.864 33.6754 18.352C 33.6914 18.336 33.7634 18.448 33.8914 18.688C 34.2754 19.376 34.4674 19.96 34.4674 20.44C 34.4674 20.904 34.3154 21.208 34.0114 21.352ZM 31.0114 14.416C 31.0114 13.744 30.6834 13.408 30.0274 13.408C 29.7234 13.408 29.4594 13.504 29.2354 13.696C 29.0274 13.872 28.9234 14.136 28.9234 14.488L 28.9234 15.232L 30.2194 15.232C 30.7474 15.232 31.0114 14.96 31.0114 14.416ZM 38.1233 13.288C 37.6752 12.488 37.4512 11.84 37.4512 11.344C 37.4512 10.832 37.5872 10.504 37.8593 10.36C 38.7713 9.96 40.0193 9.76 41.6032 9.76C 43.2032 9.76 44.3313 10.136 44.9872 10.888C 45.6433 11.624 45.9713 12.72 45.9713 14.176L 45.9713 17.968L 46.7873 17.968C 47.0592 17.968 47.2672 18.128 47.4113 18.448C 47.5712 18.768 47.6512 19.208 47.6512 19.768C 47.6512 20.328 47.5073 20.88 47.2192 21.424C 46.9473 21.968 46.5713 22.24 46.0912 22.24C 45.2273 22.24 44.5312 22.008 44.0032 21.544C 43.7632 21.352 43.5793 21.12 43.4513 20.848C 42.7153 21.776 41.5712 22.24 40.0193 22.24C 38.8513 22.24 37.8673 21.824 37.0673 20.992C 36.2672 20.16 35.8673 19.176 35.8673 18.04C 35.8673 15.432 37.4273 14.128 40.5473 14.128L 41.8672 14.128L 41.8672 13.888C 41.8672 13.472 41.7953 13.208 41.6512 13.096C 41.5232 12.968 41.2112 12.904 40.7153 12.904C 40.1072 12.904 39.2432 13.032 38.1233 13.288ZM 40.0432 17.704C 40.0432 18.056 40.1393 18.328 40.3313 18.52C 40.5233 18.696 40.7632 18.784 41.0513 18.784C 41.3552 18.784 41.6273 18.664 41.8672 18.424L 41.8672 16.576L 41.1953 16.576C 40.4272 16.576 40.0432 16.952 40.0432 17.704ZM 49.5137 17.68C 50.8097 18.464 51.8337 18.856 52.5857 18.856C 53.0657 18.856 53.3057 18.688 53.3057 18.352C 53.3057 18.112 52.8897 17.8 52.0577 17.416C 50.0577 16.6 49.0577 15.264 49.0577 13.408C 49.0577 12.224 49.4897 11.32 50.3537 10.696C 51.2177 10.072 52.2497 9.76 53.4497 9.76C 54.6657 9.76 55.6897 9.888 56.5217 10.144C 57.3697 10.4 57.7937 10.736 57.7937 11.152C 57.7937 11.504 57.6177 11.968 57.2657 12.544C 56.9297 13.12 56.6977 13.432 56.5697 13.48C 55.8817 13.096 55.1377 12.904 54.3377 12.904C 53.9057 12.904 53.6897 13.056 53.6897 13.36C 53.6897 13.552 53.7697 13.72 53.9297 13.864C 54.1057 13.992 54.4177 14.16 54.8657 14.368C 55.3137 14.56 55.6817 14.736 55.9697 14.896C 56.2737 15.056 56.6097 15.28 56.9777 15.568C 57.7457 16.176 58.1297 16.968 58.1297 17.944C 58.1297 19.224 57.7057 20.264 56.8577 21.064C 56.0097 21.848 54.7297 22.24 53.0177 22.24C 51.8817 22.24 50.8497 22.048 49.9217 21.664C 48.9937 21.28 48.5297 20.752 48.5297 20.08C 48.5297 19.632 48.6337 19.16 48.8417 18.664C 49.0657 18.168 49.2897 17.84 49.5137 17.68ZM 63.7504 22.072C 63.7504 22.184 62.9904 22.24 61.4704 22.24C 59.9664 22.24 59.2144 22.192 59.2144 22.096L 59.2144 17.776C 59.2144 17.632 59.9664 17.56 61.4704 17.56C 62.9904 17.56 63.7504 17.6 63.7504 17.68L 63.7504 22.072ZM 78.9182 5.2C 79.1902 5.2 79.3262 5.912 79.3262 7.336C 79.3262 8.744 79.1902 9.448 78.9182 9.448L 74.5262 9.448L 74.5262 12.184L 77.4542 12.184C 77.7262 12.184 77.8622 12.808 77.8622 14.056C 77.8622 15.288 77.7342 15.904 77.4782 15.904L 74.5262 15.904L 74.5262 21.688C 74.5262 21.912 74.2222 22.056 73.6142 22.12C 73.0222 22.2 72.5262 22.24 72.1262 22.24L 70.9982 22.192C 70.2142 22.096 69.8222 21.936 69.8222 21.712L 69.8222 5.824C 69.8222 5.568 69.8702 5.4 69.9662 5.32C 70.0782 5.24 70.2382 5.2 70.4462 5.2L 78.9182 5.2ZM 89.3708 21.352C 88.3628 21.944 87.0667 22.24 85.4828 22.24C 83.8987 22.24 82.5628 21.704 81.4747 20.632C 80.3868 19.544 79.8428 18.048 79.8428 16.144C 79.8428 14.224 80.3627 12.68 81.4027 11.512C 82.4588 10.344 83.7868 9.76 85.3867 9.76C 86.9867 9.76 88.2188 10.168 89.0828 10.984C 89.9628 11.8 90.4027 12.792 90.4027 13.96C 90.4027 16.552 88.9148 17.848 85.9388 17.848L 84.2827 17.848C 84.2827 18.328 84.4107 18.664 84.6667 18.856C 84.9387 19.032 85.3307 19.12 85.8427 19.12C 86.9628 19.12 88.0268 18.864 89.0348 18.352C 89.0507 18.336 89.1228 18.448 89.2508 18.688C 89.6347 19.376 89.8268 19.96 89.8268 20.44C 89.8268 20.904 89.6748 21.208 89.3708 21.352ZM 86.3708 14.416C 86.3708 13.744 86.0427 13.408 85.3867 13.408C 85.0827 13.408 84.8188 13.504 84.5948 13.696C 84.3867 13.872 84.2827 14.136 84.2827 14.488L 84.2827 15.232L 85.5787 15.232C 86.1068 15.232 86.3708 14.96 86.3708 14.416ZM 101.043 21.352C 100.035 21.944 98.7386 22.24 97.1546 22.24C 95.5706 22.24 94.2346 21.704 93.1466 20.632C 92.0586 19.544 91.5146 18.048 91.5146 16.144C 91.5146 14.224 92.0346 12.68 93.0746 11.512C 94.1306 10.344 95.4586 9.76 97.0586 9.76C 98.6586 9.76 99.8906 10.168 100.755 10.984C 101.635 11.8 102.075 12.792 102.075 13.96C 102.075 16.552 100.587 17.848 97.6106 17.848L 95.9546 17.848C 95.9546 18.328 96.0826 18.664 96.3386 18.856C 96.6106 19.032 97.0026 19.12 97.5146 19.12C 98.6346 19.12 99.6986 18.864 100.707 18.352C 100.723 18.336 100.795 18.448 100.923 18.688C 101.307 19.376 101.499 19.96 101.499 20.44C 101.499 20.904 101.347 21.208 101.043 21.352ZM 98.0426 14.416C 98.0426 13.744 97.7146 13.408 97.0586 13.408C 96.7546 13.408 96.4906 13.504 96.2666 13.696C 96.0586 13.872 95.9546 14.136 95.9546 14.488L 95.9546 15.232L 97.2506 15.232C 97.7786 15.232 98.0426 14.96 98.0426 14.416ZM 109.715 5.344C 109.715 5.104 110.347 4.984 111.611 4.984C 112.043 4.984 112.539 5.016 113.099 5.08C 113.674 5.128 113.962 5.2 113.962 5.296L 113.962 17.944L 114.802 17.944C 115.202 17.944 115.467 18.304 115.594 19.024C 115.627 19.232 115.643 19.52 115.643 19.888C 115.643 20.24 115.53 20.672 115.307 21.184C 114.986 21.888 114.474 22.24 113.771 22.24C 113.242 22.24 112.77 22.136 112.354 21.928C 111.955 21.72 111.682 21.504 111.539 21.28L 111.323 20.968C 110.443 21.816 109.339 22.24 108.01 22.24C 106.683 22.24 105.547 21.688 104.603 20.584C 103.658 19.48 103.187 17.944 103.187 15.976C 103.187 13.992 103.683 12.464 104.674 11.392C 105.666 10.304 106.906 9.76 108.395 9.76C 108.827 9.76 109.266 9.808 109.715 9.904L 109.715 5.344ZM 108.922 13.6C 108.026 13.6 107.579 14.408 107.579 16.024C 107.579 16.84 107.707 17.432 107.962 17.8C 108.218 18.152 108.498 18.328 108.802 18.328C 109.123 18.328 109.427 18.192 109.715 17.92L 109.715 13.84C 109.442 13.68 109.178 13.6 108.922 13.6ZM 117.333 5.272C 117.333 5.08 118.021 4.984 119.397 4.984C 120.789 4.984 121.485 5.088 121.485 5.296L 121.485 9.952C 122.173 9.824 122.661 9.76 122.949 9.76C 126.309 9.76 127.989 11.688 127.989 15.544C 127.989 17.688 127.469 19.344 126.429 20.512C 125.405 21.664 123.941 22.24 122.037 22.24C 120.149 22.24 118.581 21.816 117.333 20.968L 117.333 5.272ZM 122.277 13.504C 122.005 13.504 121.741 13.592 121.485 13.768L 121.485 18.352C 121.709 18.448 121.941 18.496 122.181 18.496C 122.437 18.496 122.693 18.4 122.949 18.208C 123.397 17.888 123.621 17.144 123.621 15.976C 123.621 14.328 123.173 13.504 122.277 13.504ZM 131.194 13.288C 130.746 12.488 130.522 11.84 130.522 11.344C 130.522 10.832 130.658 10.504 130.93 10.36C 131.842 9.96 133.09 9.76 134.674 9.76C 136.274 9.76 137.402 10.136 138.058 10.888C 138.714 11.624 139.042 12.72 139.042 14.176L 139.042 17.968L 139.858 17.968C 140.13 17.968 140.338 18.128 140.482 18.448C 140.642 18.768 140.722 19.208 140.722 19.768C 140.722 20.328 140.578 20.88 140.29 21.424C 140.018 21.968 139.642 22.24 139.162 22.24C 138.298 22.24 137.602 22.008 137.074 21.544C 136.834 21.352 136.65 21.12 136.522 20.848C 135.786 21.776 134.642 22.24 133.09 22.24C 131.922 22.24 130.938 21.824 130.138 20.992C 129.338 20.16 128.938 19.176 128.938 18.04C 128.938 15.432 130.498 14.128 133.618 14.128L 134.938 14.128L 134.938 13.888C 134.938 13.472 134.866 13.208 134.722 13.096C 134.594 12.968 134.282 12.904 133.786 12.904C 133.178 12.904 132.314 13.032 131.194 13.288ZM 133.114 17.704C 133.114 18.056 133.21 18.328 133.402 18.52C 133.594 18.696 133.834 18.784 134.122 18.784C 134.426 18.784 134.698 18.664 134.938 18.424L 134.938 16.576L 134.266 16.576C 133.498 16.576 133.114 16.952 133.114 17.704ZM 146.016 16.048C 146.016 17.616 146.608 18.4 147.792 18.4C 148.56 18.4 149.2 18.248 149.712 17.944C 149.952 17.944 150.144 18.36 150.288 19.192C 150.448 20.008 150.528 20.568 150.528 20.872C 150.528 21.16 150.488 21.352 150.408 21.448C 149.56 21.976 148.4 22.24 146.928 22.24C 145.456 22.24 144.2 21.696 143.16 20.608C 142.136 19.504 141.624 18.008 141.624 16.12C 141.624 14.216 142.128 12.68 143.136 11.512C 144.16 10.344 145.512 9.76 147.192 9.76C 148.888 9.76 150.064 10.168 150.72 10.984C 150.864 11.16 150.936 11.424 150.936 11.776C 150.936 12.112 150.872 12.528 150.744 13.024C 150.456 14.048 150.08 14.64 149.616 14.8C 149.552 14.816 149.456 14.824 149.328 14.824C 149.216 14.824 149.072 14.728 148.896 14.536C 148.272 13.912 147.768 13.6 147.384 13.6C 147.016 13.6 146.696 13.792 146.424 14.176C 146.152 14.56 146.016 15.184 146.016 16.048ZM 152.252 5.392C 152.252 5.136 152.98 5.008 154.436 5.008C 155.796 5.056 156.476 5.16 156.476 5.32L 156.476 14.536L 158.852 10.144C 158.964 9.904 159.644 9.784 160.892 9.784C 162.14 9.784 162.94 9.864 163.292 10.024L 160.172 15.112L 163.772 21.856C 163.804 21.92 163.5 21.968 162.86 22C 162.236 22.048 161.716 22.072 161.3 22.072C 159.764 22.072 158.94 22 158.828 21.856L 156.452 16.528L 156.452 21.832C 156.452 22.04 155.748 22.144 154.34 22.144C 152.948 22.144 152.252 22.048 152.252 21.856L 152.252 5.392ZM 165.037 17.68C 166.333 18.464 167.357 18.856 168.109 18.856C 168.589 18.856 168.829 18.688 168.829 18.352C 168.829 18.112 168.413 17.8 167.581 17.416C 165.581 16.6 164.581 15.264 164.581 13.408C 164.581 12.224 165.013 11.32 165.877 10.696C 166.741 10.072 167.773 9.76 168.973 9.76C 170.189 9.76 171.213 9.888 172.045 10.144C 172.893 10.4 173.317 10.736 173.317 11.152C 173.317 11.504 173.141 11.968 172.789 12.544C 172.453 13.12 172.221 13.432 172.093 13.48C 171.405 13.096 170.661 12.904 169.861 12.904C 169.429 12.904 169.213 13.056 169.213 13.36C 169.213 13.552 169.293 13.72 169.453 13.864C 169.629 13.992 169.941 14.16 170.389 14.368C 170.837 14.56 171.205 14.736 171.493 14.896C 171.797 15.056 172.133 15.28 172.501 15.568C 173.269 16.176 173.653 16.968 173.653 17.944C 173.653 19.224 173.229 20.264 172.381 21.064C 171.533 21.848 170.253 22.24 168.541 22.24C 167.405 22.24 166.373 22.048 165.445 21.664C 164.517 21.28 164.053 20.752 164.053 20.08C 164.053 19.632 164.157 19.16 164.365 18.664C 164.589 18.168 164.813 17.84 165.037 17.68ZM 179.274 22.072C 179.274 22.184 178.514 22.24 176.994 22.24C 175.49 22.24 174.738 22.192 174.738 22.096L 174.738 17.776C 174.738 17.632 175.49 17.56 176.994 17.56C 178.514 17.56 179.274 17.6 179.274 17.68L 179.274 22.072ZM 196.746 22.048C 195.354 22.048 194.602 21.824 194.49 21.376L 193.698 18.28L 189.882 18.28L 189.186 21.256C 189.09 21.752 188.322 22 186.882 22C 186.114 22 185.546 21.96 185.178 21.88C 184.81 21.784 184.626 21.712 184.626 21.664L 188.874 5.416C 188.874 5.288 189.97 5.224 192.162 5.224C 194.354 5.224 195.45 5.288 195.45 5.416L 199.602 21.688C 199.602 21.8 199.234 21.888 198.498 21.952C 197.762 22.016 197.178 22.048 196.746 22.048ZM 190.482 15.232L 193.002 15.232L 191.922 10.264L 191.778 10.264L 190.482 15.232ZM 211.944 21.88C 211.944 21.992 211.256 22.048 209.88 22.048C 208.52 22.048 207.84 21.976 207.84 21.832L 207.84 14.848C 207.84 14.048 207.576 13.648 207.048 13.648C 206.776 13.648 206.416 13.824 205.968 14.176L 205.968 21.856C 205.968 22.016 205.28 22.096 203.904 22.096C 202.544 22.096 201.864 22.008 201.864 21.832L 201.864 13.984L 201.264 13.984C 200.736 13.984 200.472 13.432 200.472 12.328C 200.472 11.832 200.568 11.328 200.76 10.816C 201.016 10.112 201.432 9.76 202.008 9.76C 202.584 9.76 203.136 9.912 203.664 10.216C 204.208 10.52 204.536 10.808 204.648 11.08C 205.64 10.2 206.736 9.76 207.936 9.76C 209.152 9.76 210.128 10.136 210.864 10.888C 211.728 10.136 212.768 9.76 213.984 9.76C 216.624 9.76 217.944 11.368 217.944 14.584L 217.944 21.88C 217.944 21.992 217.256 22.048 215.88 22.048C 214.52 22.048 213.84 21.976 213.84 21.832L 213.84 14.848C 213.84 14.048 213.576 13.648 213.048 13.648C 212.76 13.648 212.392 13.824 211.944 14.176L 211.944 21.88ZM 225.146 26.368C 225.146 26.48 224.458 26.536 223.082 26.536C 221.722 26.536 221.042 26.48 221.042 26.368L 221.042 14.008L 220.226 14.008C 219.842 14.008 219.578 13.656 219.434 12.952C 219.386 12.728 219.362 12.44 219.362 12.088C 219.362 11.736 219.474 11.32 219.698 10.84C 220.018 10.136 220.53 9.784 221.234 9.784C 221.698 9.784 222.122 9.896 222.506 10.12C 222.906 10.328 223.178 10.528 223.322 10.72C 223.482 10.896 223.562 11 223.562 11.032C 224.634 10.2 225.794 9.784 227.042 9.784C 228.29 9.784 229.362 10.272 230.258 11.248C 231.154 12.208 231.602 13.704 231.602 15.736C 231.602 17.752 231.154 19.32 230.258 20.44C 229.362 21.544 228.226 22.096 226.85 22.096C 226.226 22.096 225.658 22.064 225.146 22L 225.146 26.368ZM 226.13 13.984C 225.858 13.984 225.594 14.072 225.338 14.248L 225.338 18.496C 225.61 18.528 225.826 18.544 225.986 18.544C 226.162 18.544 226.298 18.544 226.394 18.544C 227.05 18.48 227.378 17.64 227.378 16.024C 227.378 14.664 226.962 13.984 226.13 13.984ZM 237.667 21.808C 237.667 21.952 236.851 22.024 235.219 22.024C 233.939 22.008 233.299 21.944 233.299 21.832L 233.299 5.488C 233.299 5.248 234.075 5.128 235.627 5.128C 236.987 5.176 237.667 5.256 237.667 5.368L 237.667 21.808ZM 244.23 21.856C 244.23 21.984 243.494 22.048 242.022 22.048C 240.566 22.048 239.838 21.992 239.838 21.88L 239.838 10.096C 239.838 9.984 240.566 9.928 242.022 9.928C 243.494 9.928 244.23 9.976 244.23 10.072L 244.23 21.856ZM 244.23 8.656C 244.23 8.768 243.494 8.824 242.022 8.824C 240.566 8.824 239.838 8.776 239.838 8.68L 239.838 5.224C 239.838 5.064 240.566 4.984 242.022 4.984C 243.494 4.984 244.23 5.032 244.23 5.128L 244.23 8.656ZM 247.336 13.192L 246.16 13.192C 245.92 13.192 245.8 12.664 245.8 11.608C 245.8 10.536 245.92 10 246.16 10L 247.336 10L 247.336 9.472C 247.336 7.776 247.688 6.608 248.392 5.968C 249.112 5.312 250.112 4.984 251.392 4.984C 252.672 4.984 253.8 5.216 254.776 5.68C 254.904 5.728 254.968 5.904 254.968 6.208C 254.968 6.496 254.832 6.968 254.56 7.624C 254.288 8.28 254.056 8.656 253.864 8.752C 253.32 8.416 252.76 8.248 252.184 8.248C 251.56 8.248 251.248 8.664 251.248 9.496L 251.248 10L 253.24 10C 253.528 10 253.672 10.512 253.672 11.536C 253.672 12.656 253.488 13.216 253.12 13.216L 251.584 13.216L 251.584 21.712C 251.584 21.904 250.872 22 249.448 22C 248.04 22 247.336 21.904 247.336 21.712L 247.336 13.192ZM 259.792 21.856C 259.792 21.984 259.056 22.048 257.584 22.048C 256.128 22.048 255.4 21.992 255.4 21.88L 255.4 10.096C 255.4 9.984 256.128 9.928 257.584 9.928C 259.056 9.928 259.792 9.976 259.792 10.072L 259.792 21.856ZM 259.792 8.656C 259.792 8.768 259.056 8.824 257.584 8.824C 256.128 8.824 255.4 8.776 255.4 8.68L 255.4 5.224C 255.4 5.064 256.128 4.984 257.584 4.984C 259.056 4.984 259.792 5.032 259.792 5.128L 259.792 8.656ZM 271.035 21.352C 270.027 21.944 268.731 22.24 267.147 22.24C 265.563 22.24 264.227 21.704 263.139 20.632C 262.051 19.544 261.507 18.048 261.507 16.144C 261.507 14.224 262.027 12.68 263.067 11.512C 264.123 10.344 265.451 9.76 267.051 9.76C 268.651 9.76 269.883 10.168 270.747 10.984C 271.627 11.8 272.067 12.792 272.067 13.96C 272.067 16.552 270.579 17.848 267.603 17.848L 265.947 17.848C 265.947 18.328 266.075 18.664 266.331 18.856C 266.603 19.032 266.995 19.12 267.507 19.12C 268.627 19.12 269.691 18.864 270.699 18.352C 270.715 18.336 270.787 18.448 270.915 18.688C 271.299 19.376 271.491 19.96 271.491 20.44C 271.491 20.904 271.339 21.208 271.035 21.352ZM 268.035 14.416C 268.035 13.744 267.707 13.408 267.051 13.408C 266.747 13.408 266.483 13.504 266.259 13.696C 266.051 13.872 265.947 14.136 265.947 14.488L 265.947 15.232L 267.243 15.232C 267.771 15.232 268.035 14.96 268.035 14.416ZM 279.707 5.344C 279.707 5.104 280.339 4.984 281.603 4.984C 282.035 4.984 282.531 5.016 283.091 5.08C 283.667 5.128 283.955 5.2 283.955 5.296L 283.955 17.944L 284.795 17.944C 285.195 17.944 285.459 18.304 285.587 19.024C 285.619 19.232 285.635 19.52 285.635 19.888C 285.635 20.24 285.523 20.672 285.299 21.184C 284.979 21.888 284.467 22.24 283.763 22.24C 283.235 22.24 282.763 22.136 282.347 21.928C 281.947 21.72 281.675 21.504 281.531 21.28L 281.315 20.968C 280.435 21.816 279.331 22.24 278.003 22.24C 276.675 22.24 275.539 21.688 274.595 20.584C 273.651 19.48 273.179 17.944 273.179 15.976C 273.179 13.992 273.675 12.464 274.667 11.392C 275.659 10.304 276.899 9.76 278.387 9.76C 278.819 9.76 279.259 9.808 279.707 9.904L 279.707 5.344ZM 278.915 13.6C 278.019 13.6 277.571 14.408 277.571 16.024C 277.571 16.84 277.699 17.432 277.955 17.8C 278.211 18.152 278.491 18.328 278.795 18.328C 279.115 18.328 279.419 18.192 279.707 17.92L 279.707 13.84C 279.435 13.68 279.171 13.6 278.915 13.6ZM 291.141 22.072C 291.141 22.184 290.381 22.24 288.861 22.24C 287.357 22.24 286.605 22.192 286.605 22.096L 286.605 17.776C 286.605 17.632 287.357 17.56 288.861 17.56C 290.381 17.56 291.141 17.6 291.141 17.68L 291.141 22.072Z"/>
</defs>
</svg>
